<?xml version="1.0" standalone="no"?>
<!DOCTYPE svg PUBLIC "-//W3C//DTD SVG 20010904//EN"
 "http://www.w3.org/TR/2001/REC-SVG-20010904/DTD/svg10.dtd">
<svg version="1.0" xmlns="http://www.w3.org/2000/svg"
 width="1080.000000pt" height="1080.000000pt" viewBox="0 0 1080.000000 1080.000000"
 preserveAspectRatio="xMidYMid meet">
<metadata>
Created by potrace 1.11, written by Peter Selinger 2001-2013
</metadata>
<g transform="translate(0.000000,1080.000000) scale(0.100000,-0.100000)"
fill="#000000" stroke="none">
<path d="M2698 10793 c1486 -2 3918 -2 5405 0 1486 1 270 2 -2703 2 -2973 0
-4189 -1 -2702 -2z"/>
<path d="M790 6575 c-57 -16 -118 -39 -126 -48 -3 -3 -23 3 -42 14 -44 23 -61
24 -68 4 -4 -8 -15 -15 -25 -15 -10 0 -19 -4 -19 -8 0 -13 -83 -99 -107 -111
-34 -17 -73 2 -73 36 l-1 28 -14 -34 c-8 -18 -15 -41 -15 -51 0 -25 -48 -80
-70 -80 -10 0 -25 -10 -33 -23 -8 -13 -33 -29 -56 -36 -44 -13 -71 -49 -71
-96 0 -37 -19 -30 -39 15 -10 22 -21 37 -24 33 -4 -3 -7 -674 -7 -1490 l0
-1483 178 -1 c278 -1 605 -13 621 -23 6 -4 16 -4 23 0 16 10 347 11 341 2 -6
-11 11 -10 42 2 15 6 31 7 37 4 6 -4 35 -7 64 -6 30 0 54 -4 54 -10 0 -5 4 -7
10 -3 8 5 583 18 630 14 94 -7 237 -2 252 9 11 10 22 11 34 4 9 -5 36 -7 59
-4 23 2 45 0 49 -6 4 -6 21 -6 52 0 51 11 114 3 114 -14 0 -6 9 -3 20 7 18 16
23 17 46 5 22 -12 27 -12 35 0 8 13 10 13 19 0 8 -12 11 -13 19 -1 7 10 10 10
13 1 3 -10 9 -10 25 -1 27 14 159 15 168 1 8 -14 55 -13 55 1 0 16 176 7 192
-9 7 -7 26 -12 42 -11 22 0 26 2 14 7 -34 14 305 12 352 -2 26 -8 69 -11 102
-8 43 3 64 0 83 -12 31 -20 41 -21 25 -1 -11 13 -7 15 30 15 39 0 41 -2 29
-17 -13 -15 -12 -16 6 -8 11 5 36 9 55 10 19 1 45 7 58 14 18 10 22 9 22 -4 0
-16 15 -20 24 -6 6 9 42 7 116 -6 36 -7 52 -5 83 11 33 16 40 17 49 5 7 -11
11 -11 15 -1 6 16 31 15 49 -3 20 -19 44 -19 44 0 0 9 -6 12 -15 9 -8 -4 -15
-2 -15 4 0 14 67 23 93 12 22 -9 21 -9 -3 -9 l-25 -1 27 -14 c21 -11 61 -14
161 -12 74 2 139 6 144 9 6 4 19 4 28 1 13 -5 14 -8 3 -15 -9 -6 -4 -9 15 -9
16 0 26 4 22 9 -3 6 9 7 30 4 39 -6 47 3 13 17 -18 7 -8 9 40 9 34 1 62 5 62
11 0 6 5 10 11 10 5 0 8 -4 5 -8 -2 -4 -1 -14 5 -22 7 -12 9 -10 9 8 0 15 6
22 20 22 11 0 20 -7 20 -15 0 -20 10 -19 26 3 9 11 13 13 14 4 0 -7 4 -10 10
-7 6 3 10 1 10 -4 0 -7 28 -11 73 -10 49 0 66 3 52 9 -16 7 -17 9 -3 9 9 1 20
-3 23 -9 8 -14 45 -13 45 1 0 6 9 9 19 6 10 -2 24 -1 31 3 7 5 32 2 56 -5 37
-11 42 -11 37 3 -5 13 -1 14 28 8 54 -12 99 -12 103 -1 3 6 8 4 14 -4 6 -8 20
-12 36 -9 15 3 29 1 32 -4 3 -5 20 -6 36 -3 21 5 28 4 24 -4 -9 -14 19 -14 45
0 11 6 66 13 122 15 55 3 105 8 109 10 4 3 8 0 8 -7 0 -8 13 -10 43 -6 28 4
36 3 22 -3 -16 -7 -11 -9 23 -9 24 -1 41 3 38 7 -3 5 8 6 25 4 16 -2 29 -10
29 -18 0 -21 17 -17 23 5 4 16 -1 21 -27 23 l-31 4 27 8 c20 6 32 4 44 -8 15
-15 18 -16 34 -1 18 16 95 15 122 -1 10 -6 10 -4 0 8 -11 14 -10 16 7 11 12
-3 21 -9 21 -13 0 -12 37 -19 48 -8 6 6 17 6 28 0 11 -5 36 -10 56 -10 30 -1
36 2 31 14 -6 16 -1 16 156 -1 30 -3 48 0 53 8 6 9 8 9 8 0 0 -8 13 -13 29
-13 17 0 32 -4 35 -9 7 -10 67 8 78 24 5 6 8 6 8 -1 0 -11 83 -11 119 1 9 2
22 1 30 -4 9 -6 23 -4 38 6 14 10 23 11 23 4 0 -6 6 -11 14 -11 8 0 17 -6 19
-12 4 -10 6 -10 6 0 1 8 23 12 76 12 61 0 75 3 75 16 0 9 5 12 11 8 7 -4 25
-7 40 -6 20 0 29 -4 29 -16 0 -13 2 -13 14 4 13 17 27 19 143 19 110 0 130 2
141 17 9 13 25 17 55 15 23 -1 45 -6 48 -10 3 -4 48 -7 100 -6 52 0 109 1 127
0 17 -1 32 3 32 7 0 5 61 7 135 6 85 -2 133 1 129 7 -6 10 6 10 144 9 33 -1
52 3 52 11 0 9 4 8 14 0 11 -9 20 -10 36 -1 17 9 31 8 65 -4 25 -8 47 -11 49
-7 5 8 78 12 273 14 72 1 129 -1 126 -5 -2 -5 3 -8 12 -8 9 0 13 5 10 10 -4 6
6 11 22 11 43 2 57 -1 68 -15 8 -10 17 -11 35 -3 20 8 301 14 405 8 11 -1 88
1 170 4 83 3 274 5 425 5 151 0 286 0 300 0 14 0 89 1 168 1 l142 0 0 835 c0
898 2 864 -50 864 -13 0 -24 9 -30 25 -10 26 -30 34 -30 13 -1 -9 -5 -7 -13 3
-11 15 -15 15 -32 3 -16 -12 -21 -12 -34 0 -9 7 -24 12 -33 11 -13 -2 -18 3
-18 18 -1 20 -1 21 -11 4 -9 -16 -13 -16 -27 -5 -29 23 -61 38 -81 38 -10 0
-29 10 -42 23 -13 12 -37 28 -53 36 -21 8 -26 15 -18 20 10 6 10 11 -2 20 -8
7 -20 10 -26 6 -7 -4 -14 2 -17 13 -3 14 -16 22 -45 26 -22 4 -59 15 -82 25
-22 10 -59 22 -81 26 -22 3 -48 14 -57 22 -11 10 -18 11 -18 5 0 -6 -7 -9 -15
-6 -8 4 -15 12 -15 20 0 9 -11 14 -30 14 -16 0 -30 4 -30 9 0 5 -10 11 -23 15
-13 3 -29 16 -35 30 -7 15 -23 27 -44 31 -18 4 -41 14 -50 22 -11 10 -26 13
-47 8 -33 -7 -45 10 -13 18 14 4 -9 3 -93 -5 -5 -1 -20 2 -32 6 -16 5 -22 2
-26 -11 -3 -15 -6 -14 -15 7 -6 14 -11 19 -11 11 -1 -8 -13 2 -28 22 -28 36
-53 48 -53 25 0 -6 -9 -3 -20 7 -11 10 -28 19 -38 20 -9 0 -23 4 -29 8 -7 5
-30 3 -51 -3 -44 -11 -113 -3 -90 11 18 12 1 11 -21 -1 -13 -6 -24 -5 -37 5
-25 19 -32 18 -36 -2 -3 -15 -4 -15 -21 1 -10 10 -24 16 -32 13 -7 -3 -30 -1
-51 4 -43 12 -115 19 -127 12 -13 -8 -101 -12 -111 -5 -17 10 -64 6 -80 -7
-13 -11 -17 -7 -30 23 -11 25 -19 34 -30 30 -11 -4 -16 0 -16 10 0 9 -6 16
-12 17 -7 0 -4 4 7 9 19 9 19 9 -3 16 -23 7 -52 60 -52 95 0 11 -4 19 -8 19
-5 0 -14 11 -20 24 -9 21 -20 25 -84 31 -40 3 -93 7 -118 7 -25 1 -37 3 -27 5
30 7 18 23 -18 23 -22 0 -38 -6 -44 -17 -10 -18 -12 -16 -15 10 -1 6 -11 11
-23 9 -14 -2 -23 4 -28 18 -3 11 -11 20 -17 20 -6 0 -20 7 -29 16 -10 9 -30
17 -44 17 -14 0 -25 5 -25 11 0 7 -3 7 -8 -1 -9 -14 -212 -24 -212 -11 0 4 -7
8 -15 8 -8 0 -15 -3 -15 -8 0 -4 -18 -6 -40 -4 -25 3 -40 0 -40 -7 0 -14 -47
-14 -52 0 -3 8 -27 9 -85 2 -49 -5 -79 -5 -76 0 3 5 -13 7 -38 3 -32 -4 -39
-3 -24 4 16 8 12 9 -22 8 -22 -1 -47 3 -55 10 -8 6 -18 9 -21 6 -3 -4 -24 -10
-46 -14 -31 -5 -38 -4 -34 7 3 7 12 13 21 13 8 0 13 3 9 6 -12 12 -47 -8 -59
-34 -11 -23 -20 -27 -56 -29 -23 -1 -48 4 -55 11 -10 11 -15 10 -26 -1 -11
-12 -15 -12 -30 1 -10 9 -34 16 -54 16 -27 0 -37 5 -42 20 -7 21 -41 28 -47 9
-4 -12 -45 6 -59 24 -3 5 -57 4 -120 -1 -76 -6 -116 -6 -120 1 -5 6 -17 6 -38
-1 -19 -7 -41 -8 -54 -3 -40 15 -99 23 -93 12 4 -5 1 -13 -5 -16 -12 -8 -40
25 -32 38 3 5 -4 6 -15 3 -15 -5 -25 -1 -34 13 -7 12 -22 21 -34 21 -11 0 -31
11 -44 25 -19 21 -30 24 -55 20 -22 -5 -26 -4 -15 4 8 6 13 11 10 12 -3 0 -14
3 -25 5 -11 3 -39 6 -62 7 -22 1 -39 5 -37 8 8 13 -28 19 -117 20 -60 1 -95
-3 -105 -12 -8 -7 -43 -14 -76 -15 -33 -1 -65 -7 -71 -13 -5 -5 -53 -20 -106
-32 -53 -12 -114 -30 -137 -40 -23 -11 -49 -19 -58 -19 -10 0 -26 -5 -37 -10
-13 -7 -19 -7 -19 0 0 5 -5 10 -11 10 -5 0 -8 -3 -5 -8 2 -4 -6 -12 -19 -18
-17 -8 -33 -8 -60 2 -21 7 -45 10 -54 7 -13 -4 -14 -3 -2 5 12 9 10 12 -13 18
-19 4 -29 14 -33 35 -3 16 -10 29 -15 29 -6 0 -8 6 -5 13 3 8 -9 21 -29 32
-33 17 -35 17 -54 0 -19 -18 -20 -17 -26 13 -4 19 -14 34 -26 38 -13 4 -17 11
-13 24 4 14 0 19 -17 22 -13 2 -22 9 -21 16 2 6 -4 12 -13 12 -8 0 -13 -4 -9
-9 3 -6 -21 -13 -55 -17 -41 -4 -60 -11 -60 -21 0 -23 -51 -35 -127 -30 -40 2
-70 0 -67 -5 3 -4 -2 -8 -11 -8 -9 0 -13 5 -10 10 13 20 -24 21 -68 1 -50 -23
-61 -25 -53 -12 3 4 -6 6 -21 3 -17 -3 -24 -1 -19 6 3 6 -3 12 -16 14 -13 2
-23 7 -23 13 0 13 -61 43 -103 51 -18 4 -45 17 -59 30 -14 13 -31 24 -38 24
-7 0 -20 8 -29 19 -13 14 -26 17 -61 13 -30 -3 -45 -1 -45 7 0 6 -5 11 -11 11
-5 0 -7 -4 -4 -10 3 -5 -1 -10 -9 -10 -9 0 -16 7 -16 15 0 12 -14 15 -66 15
-38 0 -63 4 -59 9 6 11 -48 -3 -82 -21 -18 -9 -28 -9 -45 1 -31 16 -105 0 -93
-19 3 -5 -3 -8 -12 -8 -10 1 -36 -2 -58 -6 -30 -5 -35 -4 -20 4 15 7 9 8 -25
5 -32 -3 -51 1 -68 14 -20 15 -31 16 -75 7 -29 -6 -58 -15 -64 -19 -7 -5 -18
-5 -25 -1 -7 4 -8 3 -4 -4 5 -8 -1 -12 -16 -13 -13 0 -34 -2 -48 -3 -14 -2
-36 1 -49 6 -14 5 -59 11 -100 14 -42 3 -80 11 -86 17 -7 9 -23 10 -55 4 -25
-4 -62 -10 -82 -14 -21 -3 -35 -9 -32 -14 3 -5 -2 -6 -10 -3 -9 3 -16 1 -16
-5 0 -14 -37 -14 -46 0 -4 8 -9 7 -15 -2 -8 -11 -12 -11 -23 4 -15 19 -64 27
-174 28 -32 1 -50 5 -46 11 4 6 -3 5 -15 -1 -15 -9 -27 -9 -41 -1 -11 6 -20 7
-20 3 0 -4 -6 -1 -13 9 -7 9 -24 18 -37 20 -14 2 -24 9 -23 15 3 16 -82 25
-144 15 -29 -5 -55 -7 -58 -4 -10 10 -5 22 11 22 8 0 12 4 9 10 -8 13 -60 7
-79 -9 -12 -10 -17 -9 -28 8 -7 12 -18 21 -25 21 -7 0 -13 5 -13 11 0 8 -5 7
-15 -1 -12 -10 -19 -10 -27 -2 -8 8 -20 2 -44 -23 -19 -21 -38 -33 -47 -29 -8
3 -18 1 -22 -5 -10 -16 -25 -13 -25 5 0 11 -5 14 -16 10 -9 -4 -23 -1 -30 5
-8 6 -14 8 -14 4 0 -4 -6 -2 -14 4 -8 7 -37 10 -70 8 -31 -2 -56 -1 -56 3 0 3
-18 6 -40 7 -22 1 -46 6 -53 10 -6 4 -122 9 -257 9 -135 1 -271 4 -302 7 -32
3 -60 2 -63 -4 -4 -5 -13 -9 -21 -9 -8 0 -13 4 -9 9 13 23 -103 34 -165 16z
m7926 -1002 c-10 -10 -19 5 -10 18 6 11 8 11 12 0 2 -7 1 -15 -2 -18z m-3606
-2363 c0 -5 -4 -10 -10 -10 -5 0 -10 5 -10 10 0 6 5 10 10 10 6 0 10 -4 10
-10z m-603 -6 c-3 -3 -12 -4 -19 -1 -8 3 -5 6 6 6 11 1 17 -2 13 -5z"/>
<path d="M6563 3203 c9 -2 23 -2 30 0 6 3 -1 5 -18 5 -16 0 -22 -2 -12 -5z"/>
<path d="M6975 3200 c-11 -5 -14 -9 -7 -9 6 -1 12 -8 12 -17 0 -24 35 -12 38
14 4 23 -8 27 -43 12z"/>
<path d="M3355 3190 c3 -5 8 -10 11 -10 2 0 4 5 4 10 0 6 -5 10 -11 10 -5 0
-7 -4 -4 -10z"/>
<path d="M6160 3190 c0 -5 5 -10 10 -10 6 0 10 5 10 10 0 6 -4 10 -10 10 -5 0
-10 -4 -10 -10z"/>
<path d="M6748 3193 c7 -3 16 -2 19 1 4 3 -2 6 -13 5 -11 0 -14 -3 -6 -6z"/>
<path d="M4038 3173 c7 -3 16 -2 19 1 4 3 -2 6 -13 5 -11 0 -14 -3 -6 -6z"/>
<path d="M5200 3166 c0 -9 5 -16 10 -16 6 0 10 4 10 9 0 6 -4 13 -10 16 -5 3
-10 -1 -10 -9z"/>
<path d="M4970 2961 c-13 -11 -31 -20 -40 -20 -44 -2 -346 -3 -355 0 -5 1 -18
-1 -28 -6 -10 -4 -41 -4 -70 -1 -29 4 -61 6 -72 6 -11 -1 -37 -1 -57 -2 -21 0
-38 -3 -38 -6 0 -4 -53 -6 -117 -4 -83 2 -113 0 -103 -8 12 -8 11 -10 -6 -10
-11 0 -24 3 -27 7 -10 9 -247 10 -247 1 0 -4 -11 -2 -25 4 -19 8 -42 8 -92 -1
-38 -6 -84 -9 -103 -6 -88 12 -189 14 -195 4 -5 -6 -22 -8 -47 -4 -27 5 -38 4
-34 -3 10 -16 -36 -19 -67 -4 -19 10 -32 11 -40 4 -8 -7 -18 -6 -31 4 -11 8
-29 14 -40 14 -16 0 -18 -3 -8 -9 10 -6 5 -11 -19 -20 -22 -8 -36 -8 -43 -1
-7 7 -1 10 18 10 17 0 25 4 21 11 -4 6 -14 7 -24 4 -9 -4 -82 -9 -163 -10 -81
-2 -152 -6 -157 -9 -5 -4 -12 -2 -16 4 -3 5 -13 10 -21 10 -8 0 -13 -4 -10 -8
2 -4 -28 -8 -67 -8 -40 1 -82 -3 -94 -7 -18 -7 -23 -5 -23 8 0 9 -5 13 -11 9
-17 -10 -562 -13 -575 -2 -7 5 -23 4 -39 -2 -15 -6 -55 -10 -88 -9 -70 1 -525
-10 -662 -16 -77 -3 -383 -5 -495 -2 -19 0 -145 -5 -280 -12 -135 -7 -275 -13
-312 -14 l-68 -2 0 -1052 c0 -1046 0 -1053 20 -1053 26 0 26 -20 0 -27 -16 -4
-20 -14 -20 -45 0 -35 2 -39 15 -28 8 7 12 16 9 21 -9 15 14 10 31 -7 9 -9 15
-24 13 -33 -4 -18 33 -41 64 -41 14 0 18 -5 14 -16 -3 -9 -6 -18 -6 -20 0 -2
-6 -4 -14 -4 -27 0 -27 -30 0 -40 41 -16 57 -13 51 10 -7 28 17 26 57 -5 18
-14 45 -25 60 -25 38 0 28 -22 -14 -33 l-33 -8 27 -14 c17 -9 43 -12 74 -8 35
4 58 1 80 -11 30 -15 32 -15 32 0 0 13 6 15 27 9 42 -10 55 -29 16 -22 -22 4
-35 2 -40 -7 -5 -9 -39 -15 -103 -18 -52 -3 -96 -10 -97 -15 -2 -6 -15 -8 -28
-5 -18 3 -25 0 -25 -12 0 -12 7 -14 29 -10 18 4 38 0 54 -10 23 -16 27 -16 61
1 30 14 40 15 54 5 52 -37 79 -52 98 -52 12 0 29 -11 37 -24 l16 -24 -49 -7
c-27 -4 -51 -13 -54 -21 -3 -8 -13 -14 -21 -14 -9 0 -13 -5 -9 -11 5 -8 -8 -9
-44 -4 -33 4 -58 2 -73 -6 -22 -11 -22 -13 -4 -19 10 -4 37 -3 59 1 22 4 94 7
160 7 67 1 157 4 201 7 63 5 84 3 100 -8 18 -14 17 -15 -30 -22 -93 -12 -99
-23 -18 -32 63 -6 68 -13 10 -13 -58 0 -61 -13 -7 -29 23 -7 40 -18 40 -26 0
-13 -57 -15 -410 -15 -267 0 -410 -3 -410 -10 0 -7 1807 -10 5402 -10 2971 0
5398 3 5394 8 -4 4 -209 7 -454 7 -246 0 -657 1 -914 3 l-468 2 0 26 c0 23 -3
25 -24 20 -22 -5 -24 -3 -28 45 -6 61 -22 79 -77 86 -33 5 -43 11 -47 29 -8
32 -34 31 -34 0 0 -29 -23 -29 -44 -1 -11 16 -23 17 -91 12 -45 -3 -87 -2 -97
4 -14 7 -35 4 -79 -11 -40 -14 -64 -18 -72 -12 -21 16 -177 34 -239 27 l-58
-7 -15 35 c-22 54 -48 67 -130 67 l-71 0 -16 44 c-9 24 -13 47 -9 52 3 5 24
10 45 11 48 3 67 18 36 28 -14 5 -25 2 -30 -6 -7 -10 -11 -10 -24 0 -9 8 -16
10 -16 6 0 -4 -6 -3 -13 3 -7 7 -29 9 -49 6 -20 -4 -38 -2 -42 4 -13 21 -1 22
234 24 58 1 125 1 149 0 52 -1 83 12 75 33 -4 8 -10 15 -16 15 -5 0 -7 -4 -3
-10 3 -6 -24 -9 -70 -7 -57 1 -75 5 -75 15 0 11 10 13 45 8 53 -8 89 0 81 19
-4 12 59 22 189 30 62 4 60 3 41 24 -11 12 -14 21 -7 26 6 3 11 -1 11 -9 0
-21 34 -20 51 1 10 11 10 14 2 9 -7 -4 -23 0 -35 8 l-22 16 21 0 c12 0 28 6
35 14 9 9 33 13 64 12 34 -2 56 3 72 16 24 17 92 22 92 6 0 -17 18 -7 24 15 7
21 7 21 16 2 8 -19 9 -19 9 2 1 12 7 23 14 26 6 2 -18 2 -54 -1 -37 -2 -69 0
-72 4 -3 5 31 11 76 13 105 4 125 6 133 13 3 3 18 3 32 -1 15 -3 47 -4 72 0
36 5 41 8 23 14 -12 4 -24 13 -27 21 -3 8 -15 14 -26 14 -11 0 -20 5 -20 10 0
6 9 10 19 10 11 0 21 6 23 12 4 10 10 10 32 0 21 -9 42 -10 92 -1 35 6 70 9
77 6 7 -2 30 -1 52 3 37 7 38 8 9 9 -23 1 -33 7 -37 21 -3 13 -10 18 -21 14
-9 -3 -16 -1 -16 4 0 6 8 13 18 16 29 8 107 10 120 2 6 -4 16 1 23 12 10 16
17 17 56 8 35 -8 46 -7 53 4 10 17 -38 50 -73 50 -18 0 -19 2 -7 10 8 5 23 7
32 4 9 -3 29 2 43 12 14 9 25 12 25 8 0 -5 5 -2 11 6 8 12 9 11 7 -5 -2 -15 3
-21 24 -23 21 -3 30 3 43 28 15 30 19 31 78 31 104 -1 117 0 117 8 0 4 19 7
43 8 60 0 136 13 142 24 4 5 -2 9 -12 9 -11 0 -23 4 -29 10 -5 5 -20 7 -33 3
-17 -4 -19 -8 -9 -15 8 -5 2 -6 -17 -2 -16 3 -48 9 -70 13 l-40 7 55 8 c78 12
172 13 191 2 10 -6 23 -4 35 3 17 11 17 11 -4 6 -20 -6 -23 -4 -20 16 3 22 14
26 83 33 17 2 36 4 43 5 23 2 12 20 -15 23 -34 4 -43 28 -11 28 18 0 20 2 8
10 -23 14 -4 23 60 28 33 2 57 8 54 13 -3 5 -16 6 -30 3 -14 -4 -24 -2 -24 5
0 6 15 11 33 11 17 1 43 7 56 14 19 11 21 14 7 19 -16 6 -23 28 -8 26 22 -4
32 3 32 21 0 11 7 20 15 20 8 0 15 -4 15 -10 0 -5 -5 -10 -11 -10 -5 0 -7 -5
-4 -10 3 -6 11 -10 16 -10 6 0 7 5 3 11 -4 8 1 9 17 4 23 -7 23 -7 4 11 -18
19 -18 19 3 22 13 2 35 10 50 19 27 15 27 15 -15 10 -24 -3 -43 -1 -43 4 0 5
13 9 29 9 17 0 33 5 36 10 4 6 10 8 15 5 5 -3 11 -1 14 4 3 5 30 12 59 17 28
4 46 9 40 11 -18 6 7 30 41 39 42 10 30 24 -21 25 -27 1 -52 1 -58 -1 -5 -1
-5 4 1 10 7 7 29 12 50 13 22 0 44 4 50 8 6 5 28 11 50 14 21 2 40 9 42 14 2
5 18 7 36 4 19 -3 36 -1 39 4 4 5 -6 9 -22 8 -16 -1 -37 4 -47 12 -16 12 -15
13 12 13 47 0 104 12 99 20 -3 5 11 14 30 20 28 9 33 15 25 25 -8 10 -5 14 15
19 20 5 25 13 25 36 0 17 -3 29 -7 29 -21 -3 -33 2 -28 12 4 6 13 8 21 5 8 -3
14 -3 14 0 0 2 -10 9 -22 14 -18 7 -19 9 -5 9 9 1 17 6 17 12 0 12 -58 8 -95
-7 -18 -7 -18 -6 -5 7 9 9 26 22 40 29 23 13 24 14 5 21 -11 4 -37 8 -57 8
-20 1 -39 5 -43 10 -3 6 -15 8 -26 6 -11 -2 -30 0 -42 5 -17 7 -18 9 -4 9 9 1
17 6 17 11 0 6 11 8 26 4 19 -5 25 -4 20 5 -4 6 -14 11 -22 11 -26 0 -15 27
14 33 34 6 107 2 146 -8 21 -6 27 -5 22 4 -4 6 -2 11 3 11 8 0 11 122 11 389
l0 389 -87 8 c-49 5 -198 8 -333 6 -435 -3 -952 -2 -1060 4 -133 7 -190 9
-715 17 -236 4 -495 9 -575 12 -80 3 -262 5 -405 4 -606 0 -638 0 -657 18 -13
12 -21 13 -31 5 -7 -6 -28 -11 -47 -10 -19 0 -55 -2 -80 -4 -25 -2 -60 0 -78
5 -20 5 -38 5 -45 -1 -7 -5 -21 -6 -32 -1 -28 11 -57 11 -50 -1 8 -13 -72 -12
-166 2 -42 6 -85 8 -95 3 -11 -4 -32 -7 -49 -6 -192 8 -375 9 -375 0 0 -7 -6
-7 -17 0 -10 5 -24 6 -33 1 -8 -4 -34 -5 -57 -1 -23 5 -120 6 -215 4 -95 -3
-180 -5 -188 -5 -151 -3 -351 7 -371 18 -13 7 -19 14 -14 14 10 0 -15 20 -25
20 -3 0 -16 -9 -30 -19z m-1213 -47 c-3 -3 -12 -4 -19 -1 -8 3 -5 6 6 6 11 1
17 -2 13 -5z m6801 -846 c20 -20 14 -24 -25 -20 -34 4 -35 6 -18 18 23 17 28
17 43 2z m-358 -8 c0 -5 -9 -10 -20 -10 -11 0 -20 5 -20 10 0 6 9 10 20 10 11
0 20 -4 20 -10z m-80 -10 c12 -8 9 -10 -13 -10 -16 0 -26 4 -22 10 8 12 16 12
35 0z m-216 -6 c13 -5 14 -9 5 -20 -21 -26 -71 -11 -54 16 7 11 26 13 49 4z
m729 -85 c5 -4 6 -12 3 -18 -4 -6 -13 -8 -19 -4 -7 4 -16 8 -21 8 -5 0 -11 6
-13 13 -3 6 2 12 11 12 9 0 16 6 17 13 0 7 3 6 6 -3 3 -8 10 -18 16 -21z
m-1593 -1039 c0 -5 -12 -10 -27 -9 -25 0 -26 1 -8 9 27 12 35 12 35 0z m-230
-50 c0 -5 -3 -10 -7 -10 -5 0 -18 -3 -30 -6 -13 -4 -23 -2 -23 4 0 9 9 13 53
21 4 0 7 -3 7 -9z m-8700 -128 c0 -14 -11 -21 -26 -15 -8 3 -11 9 -8 14 7 11
34 12 34 1z m7990 -62 c0 -5 -4 -10 -10 -10 -5 0 -10 5 -10 10 0 6 5 10 10 10
6 0 10 -4 10 -10z m-7870 -106 c0 -7 -9 -14 -20 -17 -11 -3 -18 -1 -15 3 3 5
-2 13 -11 18 -9 5 -14 14 -10 20 8 13 56 -8 56 -24z m7890 26 c0 -5 -5 -10
-11 -10 -5 0 -7 5 -4 10 3 6 8 10 11 10 2 0 4 -4 4 -10z m-130 -50 c0 -5 -5
-10 -11 -10 -5 0 -7 5 -4 10 3 6 8 10 11 10 2 0 4 -4 4 -10z m-375 -50 c11 -5
14 -9 7 -9 -7 -1 -10 -5 -7 -11 3 -5 0 -7 -9 -4 -15 6 -31 35 -18 33 4 0 16
-4 27 -9z m-7230 -22 c-9 -5 -24 -7 -33 -3 -15 6 -15 8 3 15 28 10 53 0 30
-12z m5770 -123 c-23 -8 -85 -10 -85 -3 0 4 21 8 48 7 26 0 43 -2 37 -4z
m-5615 -49 c0 -3 -4 -8 -10 -11 -5 -3 -10 -1 -10 4 0 6 5 11 10 11 6 0 10 -2
10 -4z m221 -31 l34 -14 -32 -1 c-17 0 -33 5 -35 12 -3 8 -13 7 -36 -5 -24
-11 -32 -12 -32 -3 0 30 46 35 101 11z m4889 5 c0 -5 -8 -10 -18 -10 -10 0
-23 -5 -30 -12 -9 -9 -12 -9 -12 0 0 7 10 17 23 22 30 12 37 12 37 0z m55 0
c19 -8 19 -9 -2 -9 -12 -1 -25 4 -28 9 -7 12 2 12 30 0z m-5061 -15 c-5 -12
-10 -13 -20 -4 -19 15 -18 19 6 19 13 0 18 -5 14 -15z m6312 -16 c2 -4 13 -5
23 -2 33 8 89 -16 104 -45 7 -15 14 -47 15 -72 2 -25 7 -49 13 -54 5 -6 9 -20
9 -33 l0 -23 -945 0 c-623 0 -945 3 -945 10 0 6 -16 10 -36 10 -21 0 -33 -4
-29 -10 3 -5 -1 -10 -9 -10 -23 0 -30 20 -11 34 14 10 31 10 82 0 64 -12 87
-9 148 16 58 24 75 33 75 42 0 13 -22 9 -41 -8 -16 -14 -18 -14 -24 5 -3 12
-11 21 -17 21 -6 0 -8 3 -4 7 4 5 17 8 29 8 11 0 22 5 24 12 4 12 -107 11
-146 -2 -13 -4 -20 0 -24 14 -3 13 1 21 15 24 15 4 18 2 14 -11 -6 -16 -5 -16
7 -1 14 19 82 30 114 18 12 -4 23 -4 25 1 5 13 178 30 206 19 33 -13 42 -11
42 7 0 14 3 14 15 4 8 -7 27 -10 43 -7 15 3 47 2 72 -3 24 -4 67 -4 95 0 40 7
52 5 62 -7 8 -10 20 -13 42 -8 16 3 47 2 67 -4 26 -7 42 -7 50 0 15 13 124 8
124 -6 0 -5 5 -2 11 7 7 13 18 16 38 12 16 -4 32 -1 35 5 10 16 41 14 56 -4
11 -13 14 -13 27 1 9 8 22 13 30 10 8 -3 31 -6 51 -7 33 -1 35 -2 12 -9 -24
-8 -24 -8 7 -9 17 -1 33 4 35 9 5 17 109 29 137 16 17 -7 25 -8 28 0 2 6 17 8
34 6 17 -2 40 0 52 6 12 6 31 13 42 16 30 6 115 3 121 -5z m-5406 -49 c0 -5
-7 -10 -15 -10 -8 0 -15 -6 -15 -12 0 -9 -3 -8 -10 2 -6 9 -5 17 3 22 17 11
37 10 37 -2z m210 -5 c0 -11 -11 -15 -39 -15 -44 0 -64 16 -29 23 49 9 68 7
68 -8z m137 9 c-10 -10 -97 -13 -97 -3 0 5 23 9 52 9 28 0 49 -3 45 -6z m-513
-15 c-2 -4 -15 -9 -29 -11 -18 -4 -23 -2 -16 6 10 12 53 17 45 5z m3703 -5
c-3 -3 -12 -4 -19 -1 -8 3 -5 6 6 6 11 1 17 -2 13 -5z m-4102 -14 c0 -1 9 -3
20 -4 32 -5 50 -10 55 -18 13 -16 58 -19 72 -4 14 14 16 13 21 -3 5 -22 -31
-31 -120 -31 -40 0 -53 -4 -53 -15 0 -8 -14 -17 -35 -21 -19 -3 -38 -10 -41
-15 -8 -13 -26 -11 -22 3 2 6 18 16 36 22 37 13 38 32 2 28 -21 -2 -19 1 10
15 26 12 30 17 18 20 -14 4 -15 7 -5 17 9 10 42 15 42 6z m4210 0 c4 -6 -6
-10 -22 -9 -25 0 -26 1 -8 9 11 5 21 9 22 9 1 1 5 -3 8 -9z m-4000 -20 c3 -5
-1 -10 -9 -10 -8 0 -18 5 -21 10 -3 6 1 10 9 10 8 0 18 -4 21 -10z m4118 -45
c65 -10 69 -25 8 -25 -29 0 -51 5 -51 11 0 5 -5 7 -11 3 -6 -3 -15 0 -20 7 -5
8 -3 16 4 21 6 4 14 3 17 -2 3 -4 26 -11 53 -15z m-587 -10 c-3 -8 2 -18 11
-23 40 -23 -283 -43 -352 -23 l-30 9 28 1 c16 1 26 5 22 11 -6 10 33 14 187
14 56 1 91 6 99 14 18 17 42 15 35 -3z m59 -5 c-3 -5 -10 -10 -16 -10 -5 0 -9
5 -9 10 0 6 7 10 16 10 8 0 12 -4 9 -10z m105 -5 c7 -8 11 -15 9 -16 -20 -4
-101 -7 -91 -3 6 3 9 11 5 17 -4 6 0 8 10 4 9 -3 19 -2 22 3 9 15 31 12 45 -5z
m275 0 c0 -14 -61 -18 -96 -6 -23 8 -29 7 -29 -5 0 -10 -12 -14 -40 -14 -22 0
-40 5 -40 10 0 6 12 10 28 10 15 0 34 5 42 10 19 13 135 8 135 -5z m-225 -15
c0 -5 -2 -10 -4 -10 -3 0 -8 5 -11 10 -3 6 -1 10 4 10 6 0 11 -4 11 -10z
m-3445 -10 c24 -7 18 -8 -29 -7 -45 0 -60 -3 -68 -16 -8 -15 -33 -17 -246 -16
-130 1 -227 4 -214 6 12 2 20 8 18 12 -7 10 -10 10 204 17 102 3 187 8 189 10
7 7 114 2 146 -6z m280 -5 c30 -2 55 0 55 3 0 12 156 5 176 -7 18 -12 18 -12
-1 -7 -11 3 -33 -1 -48 -9 -36 -19 -391 -19 -406 -1 -7 9 6 12 49 14 33 1 70
6 82 11 13 5 27 7 31 4 4 -3 32 -6 62 -8z m1602 9 c-3 -3 -12 -4 -19 -1 -8 3
-5 6 6 6 11 1 17 -2 13 -5z m787 -6 c-5 -8 7 -9 46 -5 48 6 130 -9 130 -24 0
-3 -121 -6 -270 -6 -148 0 -270 3 -270 8 0 4 48 10 108 14 59 4 132 11 162 15
85 12 102 12 94 -2z m-1684 -24 c0 -9 -7 -14 -17 -12 -25 5 -28 28 -4 28 12 0
21 -6 21 -16z m812 3 c-24 -7 -36 -7 -44 1 -9 9 -1 12 33 11 l44 -1 -33 -11z
m247 7 c33 -4 61 -11 61 -15 0 -10 -140 -12 -164 -3 -9 3 -16 10 -16 15 0 11
34 11 119 3z"/>
<path d="M5840 190 c0 -5 7 -10 15 -10 8 0 15 5 15 10 0 6 -7 10 -15 10 -8 0
-15 -4 -15 -10z"/>
<path d="M988 143 c6 -2 18 -2 25 0 6 3 1 5 -13 5 -14 0 -19 -2 -12 -5z"/>
<path d="M4559 67 c5 -5 26 -7 47 -5 l39 3 -47 5 c-26 3 -43 1 -39 -3z"/>
<path d="M10700 2024 c0 -24 12 -25 48 -6 12 7 26 10 31 8 5 -3 11 0 14 7 3 8
-10 12 -44 13 -44 0 -49 -2 -49 -22z"/>
<path d="M9390 1000 c0 -5 5 -10 10 -10 6 0 10 5 10 10 0 6 -4 10 -10 10 -5 0
-10 -4 -10 -10z"/>
<path d="M9178 928 c9 -9 15 -9 24 0 9 9 7 12 -12 12 -19 0 -21 -3 -12 -12z"/>
<path d="M8800 765 c0 -8 5 -15 10 -15 6 0 10 7 10 15 0 8 -4 15 -10 15 -5 0
-10 -7 -10 -15z"/>
<path d="M8188 573 c7 -3 16 -2 19 1 4 3 -2 6 -13 5 -11 0 -14 -3 -6 -6z"/>
<path d="M70 530 c-13 -8 -12 -10 3 -10 9 0 17 5 17 10 0 12 -1 12 -20 0z"/>
<path d="M8258 523 c7 -3 16 -2 19 1 4 3 -2 6 -13 5 -11 0 -14 -3 -6 -6z"/>
<path d="M514 128 c-3 -4 16 -9 43 -9 26 -1 38 -4 25 -6 -19 -4 -20 -6 -8 -18
10 -10 22 -11 42 -5 16 4 23 9 17 9 -7 1 -13 9 -13 19 0 14 -9 17 -50 18 -28
0 -53 -3 -56 -8z"/>
<path d="M330 90 c0 -5 5 -10 11 -10 5 0 7 5 4 10 -3 6 -8 10 -11 10 -2 0 -4
-4 -4 -10z"/>
</g>
</svg>
